# xmcd CD database file
#
# Track frame offsets:
#	150
#	15536
#	28604
#	45043
#	62880
#	77702
#	95993
#	113531
#	128792
#	144087
#	166004
#	182704
#	201335
#	216068
#	232152
#	250178
#
# Disc length: 3576 seconds
#
# Revision: 0
# Processed by: cddbd v1.5.2PL0 Copyright (c) Steve Scherf et al.
# Submitted via: CDex 1.51
#
DISCID=d00df610
DTITLE=Various Artist - Country's Got More Heart [CD1]
DYEAR=2007
DGENRE=Country
TTITLE0=She's Got It All - Kenney Chesney
TTITLE1=She Don't Know She's Beautiful - Sammy Kershaw
TTITLE2=Now That I Found You - Terri Clark
TTITLE3=Loving Blind - Clint Black
TTITLE4=Wrong Again - Martina McBride
TTITLE5=I Miss My Frend - Darryl Worley
TTITLE6=Love Me - Collin Raye
TTITLE7=Passionet Kisses - Mary Chapin Carpenter
TTITLE8=If You Ever Stop Loving Me - Montgomery Gentry
TTITLE9=To Be Loved By You - Wynonna
TTITLE10=What Mattered Most - Ty Herndon
TTITLE11=I'll Think Of Something - Mark Chesnutt
TTITLE12=Single White Female - Chely Wright
TTITLE13=Forever  As Far As I'll Go - Alabama
TTITLE14=Look At Us - Vince Gill
TTITLE15=When You Lie Next To Me - Kellie Coffey
EXTD=YEAR: 2007
EXTT0=
EXTT1=
EXTT2=
EXTT3=
EXTT4=
EXTT5=
EXTT6=
EXTT7=
EXTT8=
EXTT9=
EXTT10=
EXTT11=
EXTT12=
EXTT13=
EXTT14=
EXTT15=
PLAYORDER=
